<?xml version="1.0" standalone="no"?>
<!DOCTYPE svg PUBLIC "-//W3C//DTD SVG 20010904//EN"
 "http://www.w3.org/TR/2001/REC-SVG-20010904/DTD/svg10.dtd">
<svg version="1.0" xmlns="http://www.w3.org/2000/svg"
 width="700.000000pt" height="700.000000pt" viewBox="0 0 700.000000 700.000000"
 preserveAspectRatio="xMidYMid meet">
<metadata>
Created by potrace 1.14, written by Peter Selinger 2001-2017
</metadata>
<g transform="translate(0.000000,700.000000) scale(0.100000,-0.100000)"
fill="#000000" stroke="none">
<path d="M3019 6226 c-2 -2 -35 -7 -74 -11 -38 -4 -72 -8 -75 -10 -3 -1 -27
-6 -55 -9 -58 -8 -264 -60 -315 -80 -19 -8 -73 -29 -120 -48 -47 -18 -134 -59
-195 -92 -638 -341 -1062 -975 -1132 -1696 -14 -134 -8 -387 12 -520 42 -294
170 -627 336 -875 40 -60 78 -115 84 -121 5 -6 28 -33 49 -60 69 -87 268 -277
366 -350 176 -131 282 -190 515 -289 81 -34 281 -92 377 -109 60 -10 177 -26
233 -31 78 -8 296 -8 360 0 200 22 336 51 505 107 120 40 379 161 450 211 l34
24 48 -71 c26 -39 102 -134 169 -211 67 -77 149 -171 182 -210 33 -38 71 -84
86 -100 14 -17 96 -111 181 -210 85 -99 159 -185 165 -191 5 -6 30 -35 55 -64
246 -292 339 -379 450 -421 83 -32 154 -23 200 24 17 17 30 39 30 48 0 10 4
20 9 24 18 10 4 150 -22 224 -38 109 -92 192 -239 363 -73 86 -152 178 -175
206 -24 27 -55 63 -70 80 -16 16 -37 40 -48 53 -27 33 -194 226 -226 264 -15
16 -116 134 -226 261 l-200 231 49 54 c130 144 265 343 347 514 58 120 119
281 137 360 1 6 9 37 17 70 9 33 18 74 21 90 3 17 8 41 11 55 35 170 37 506 5
690 -5 30 -12 70 -15 88 -16 96 -57 239 -108 374 -55 143 -193 394 -276 498
-20 24 -43 53 -51 64 -125 162 -342 354 -545 483 -228 144 -530 257 -800 298
-16 3 -46 8 -65 11 -43 6 -445 16 -451 10z m377 -381 c82 -9 223 -34 259 -45
17 -5 62 -19 100 -31 464 -144 852 -471 1072 -904 78 -155 150 -372 169 -515
4 -30 9 -64 11 -75 16 -103 4 -407 -21 -539 -36 -193 -146 -458 -257 -624
-288 -428 -736 -716 -1234 -796 -134 -21 -369 -29 -471 -15 -33 4 -84 11 -114
14 -30 4 -58 9 -61 11 -3 2 -21 6 -40 9 -165 28 -425 134 -597 242 -34 22
-164 116 -199 146 -56 45 -211 206 -255 263 -174 226 -280 454 -338 724 -31
141 -32 149 -35 335 -5 316 42 525 183 815 170 349 480 649 847 820 89 42 223
94 272 105 192 46 229 52 348 62 39 3 71 6 73 8 5 4 231 -3 288 -10z"/>
</g>
</svg>
